<svg width="300" height="90" viewBox="0 0 300 90" fill="none" xmlns="http://www.w3.org/2000/svg">
<g clip-path="url(#clip0_379_182)">
<path d="M13.5237 26.6447C15.472 26.6447 17.0649 25.063 17.0649 23.1077C17.0649 21.1592 15.472 19.5726 13.5237 19.5726C11.5774 19.5726 10 21.1592 10 23.1077C10 25.063 11.5774 26.6447 13.5237 26.6447Z" fill="#009BDD"/>
<path d="M286.467 54.3213C288.419 54.3213 290 52.7469 290 50.7964C290 48.8446 288.419 47.2614 286.467 47.2614C284.532 47.2614 282.947 48.8446 282.947 50.7964C282.947 52.7469 284.532 54.3213 286.467 54.3213Z" fill="#6B196B"/>
<path d="M119.512 32.9308V32.9049C119.499 28.9736 118.126 25.648 115.631 23.4028L115.459 23.2585L115.407 23.2105H115.397C113.064 21.2158 109.885 20.1523 106.108 20.1129H106.03H105.925H105.897C105.78 20.1129 105.722 20.1248 105.658 20.1248C105.611 20.1248 105.546 20.1129 105.465 20.1129L105.401 20.1248C105.368 20.1129 105.337 20.1129 105.282 20.1129H105.273H105.251H105.194C101.42 20.1523 98.2618 21.2158 95.9156 23.2105L95.6898 23.4028C93.2141 25.6394 91.8383 28.9531 91.8194 32.8672H91.809V32.8913L91.792 53.1619C91.792 53.438 91.9073 53.697 92.1093 53.8857C92.3127 54.0761 92.6023 54.1908 92.8847 54.1908H96.5119C96.7983 54.1908 97.0863 54.0761 97.2914 53.8857C97.4945 53.697 97.6085 53.438 97.6085 53.1619L97.6189 33.5757C97.6239 30.6958 98.3671 28.6616 99.7048 27.327C101.008 26.0183 102.96 25.2825 105.68 25.2295C108.37 25.2825 110.328 26.0183 111.611 27.327C112.945 28.6616 113.683 30.6958 113.707 33.5757V53.1619C113.707 53.438 113.831 53.697 114.024 53.8857C114.229 54.0761 114.515 54.1908 114.803 54.1908H118.439C118.705 54.1908 119 54.0761 119.203 53.8857C119.412 53.697 119.527 53.438 119.527 53.1619L119.512 32.9308Z" fill="#D5006C"/>
<path d="M245.98 32.9308V32.9049C245.973 28.9736 244.598 25.648 242.103 23.4028L241.922 23.2585L241.888 23.2105C239.536 21.2158 236.357 20.1523 232.59 20.1129H232.5H232.406H232.375C232.264 20.1129 232.194 20.1248 232.123 20.1248C232.092 20.1248 232.019 20.1129 231.937 20.1129L231.875 20.1248C231.854 20.1129 231.809 20.1129 231.761 20.1129H231.754H231.728H231.654C227.894 20.1523 224.732 21.2158 222.386 23.2105H222.383L222.174 23.4028C219.69 25.6394 218.319 28.9531 218.293 32.8672V32.8913L218.266 53.1619C218.266 53.438 218.376 53.697 218.583 53.8857C218.791 54.0761 219.069 54.1908 219.359 54.1908H222.984C223.281 54.1908 223.56 54.0761 223.762 53.8857C223.97 53.697 224.079 53.438 224.079 53.1619L224.099 33.5757C224.106 30.6958 224.858 28.6616 226.196 27.327C227.468 26.0183 229.444 25.2825 232.15 25.2295C234.84 25.2825 236.802 26.0183 238.091 27.327C239.422 28.6616 240.153 30.6958 240.186 33.5757V53.1619C240.186 53.438 240.301 53.697 240.496 53.8857C240.707 54.0761 241 54.1908 241.277 54.1908H244.915C245.191 54.1908 245.478 54.0761 245.682 53.8857C245.886 53.697 246.001 53.438 246.001 53.1619L245.98 32.9308Z" fill="#D5006C"/>
<path d="M179.238 23.5742C179.214 23.5537 179.197 23.5296 179.178 23.5091C177.102 21.6138 173.803 20.4371 169.981 20.4284H169.767C166.631 20.4284 163.516 21.0804 160.813 23.3821V21.36H160.819V11.1475C160.819 10.8798 160.709 10.6122 160.501 10.4287C160.299 10.2246 160.013 10.1216 159.732 10.1216H156.154C155.865 10.1216 155.588 10.2246 155.379 10.4287C155.179 10.6122 155.061 10.8798 155.061 11.1475V21.36V43.0592V53.2149C155.061 53.4878 155.179 53.7502 155.379 53.9406C155.581 54.1326 155.865 54.2408 156.154 54.2408H159.732C160.013 54.2408 160.299 54.1326 160.501 53.9406C160.709 53.7502 160.819 53.4878 160.819 53.2149V51.1138C163.212 53.7656 166.631 54.6798 169.767 54.6798H169.988C173.811 54.6677 177.118 53.493 179.178 51.613C183.023 47.97 183.914 42.4159 183.919 37.2445C183.914 32.1075 183.023 27.1883 179.238 23.5742ZM178.161 37.2445V37.3217V37.3233V37.399C178.15 40.627 177.818 43.7914 176.58 46.0401C175.36 48.2082 173.415 49.6595 169.625 49.7246C169.591 49.7246 169.557 49.7246 169.484 49.7246H169.415C165.602 49.685 163.635 48.2271 162.4 46.0401C161.157 43.7762 160.813 40.5909 160.813 37.3456V37.1501C160.813 33.9258 161.157 31.3253 162.4 29.0715C163.635 26.8693 165.602 25.4163 169.415 25.3925H169.448H169.503H169.567C173.377 25.4163 175.351 26.8693 176.58 29.0715C177.826 31.3253 178.161 33.9258 178.161 37.1501V37.2445Z" fill="#D5006C"/>
<path d="M87.7476 31.4164V31.4008C87.7476 27.9618 86.6062 25.0149 84.1926 23.0426C81.7652 21.065 78.2967 20.1249 73.7921 20.1249H73.637H73.5765C68.8666 20.1097 65.1224 21.1386 62.2759 24.1403L62.2744 24.1316L62.1087 24.334C61.8864 24.569 61.6778 24.8109 61.4777 25.063C61.4777 25.0751 61.4777 25.0751 61.4604 25.0787L61.1848 25.4163C61.0123 25.624 60.9123 25.8967 60.9555 26.1864C60.9812 26.4645 61.128 26.7302 61.3503 26.9139L61.5088 27.0545C61.5639 27.1229 61.6347 27.195 61.7226 27.2688L62.3535 27.7885L64.0482 29.2448C64.2672 29.4265 64.5534 29.5261 64.8257 29.5157C65.1032 29.5055 65.3705 29.3854 65.5445 29.171L66.6204 27.8915V27.8881C67.3031 27.1608 67.9995 26.6343 68.846 26.2721C70.0372 25.7456 71.5663 25.5091 73.7473 25.4918L73.7834 25.4849H73.8489C76.9937 25.4918 78.9433 26.1299 80.0603 27.0989C81.1688 28.0596 81.7449 29.5088 81.753 31.7661V31.8775V33.9909H72.4508C68.6924 34.0113 65.5465 34.85 63.2914 36.6118C61.0364 38.3251 59.7798 40.9769 59.7798 44.0591V44.1707C59.7798 46.7485 60.7589 49.2616 62.5275 51.0145C64.9086 53.3504 68.0789 54.1979 72.8767 54.1979H72.9284H75.3488C79.7345 54.1979 82.8979 53.1208 84.927 50.9492C86.9388 48.7743 87.7476 45.6285 87.7476 41.7111V31.4746V31.4164ZM81.753 41.8654C81.753 44.584 81.1464 46.0831 80.3448 46.7795C78.4156 48.5495 76.023 48.8258 73.0989 48.8292H73.0696H73.0146C70.2081 48.8342 68.3721 48.3489 67.3218 47.5874C66.3307 46.8822 65.8151 45.86 65.7894 44.0917V44.0231C65.805 42.2769 66.3444 41.1896 67.3497 40.4212C68.4045 39.6184 70.1631 39.1039 72.8129 39.1039H72.8458H81.753V41.8654Z" fill="#D5006C"/>
<path d="M214.268 31.4592V31.4438C214.268 28.0062 213.119 25.0629 210.703 23.0975C208.284 21.1128 204.795 20.1763 200.307 20.1763H200.148H200.091C195.378 20.1644 191.64 21.1866 188.787 24.1933H188.777L188.617 24.3785C188.403 24.6137 188.199 24.8554 187.984 25.1196C187.984 25.1231 187.984 25.1282 187.984 25.1282L187.698 25.4745C187.517 25.6753 187.424 25.9533 187.465 26.2329C187.503 26.5125 187.648 26.7801 187.858 26.9686L188.02 27.1075C188.083 27.1761 188.148 27.2568 188.234 27.3135L188.874 27.8298L190.57 29.2893C190.782 29.478 191.065 29.5825 191.339 29.5672C191.613 29.5587 191.878 29.4265 192.052 29.2276L193.134 27.9395C193.811 27.2053 194.509 26.6942 195.354 26.3305C196.545 25.8025 198.071 25.5606 200.269 25.5433H200.288L200.371 25.5415C203.517 25.5433 205.45 26.1864 206.577 27.1488C207.689 28.1161 208.256 29.5587 208.266 31.8141C208.266 31.8262 208.266 31.869 208.274 31.9205V34.0387H198.959C195.202 34.0456 192.075 34.8982 189.801 36.6509C187.55 38.3731 186.298 41.0197 186.298 44.0917V44.2118C186.298 46.7794 187.26 49.3009 189.037 51.0487C191.411 53.3796 194.594 54.2321 199.386 54.2321H199.445H201.864C206.263 54.2371 209.401 53.1499 211.43 50.9887C213.462 48.8154 214.268 45.6577 214.268 41.7539V31.533V31.4592ZM192.303 44.138V44.059C192.327 42.313 192.858 41.2324 193.852 40.459C194.904 39.6562 196.687 39.1484 199.329 39.1484H199.354H208.274V41.9116C208.266 44.6216 207.653 46.119 206.853 46.8274C204.925 48.594 202.534 48.8634 199.611 48.8686H199.591H199.53C196.707 48.8703 194.882 48.3969 193.837 47.6352C192.841 46.9218 192.327 45.903 192.303 44.138Z" fill="#D5006C"/>
<path d="M31.8429 20.2467H25.7159V14.0635V11.0651C25.7159 10.5351 25.2485 10.0944 24.6607 10.0944H20.9647C20.6941 10.0944 20.4162 10.1954 20.2232 10.3876C20.0249 10.5661 19.9094 10.8149 19.9094 11.0651V16.5813V45.5618C19.9094 47.9133 20.6025 50.0299 22.0954 51.6319C23.5193 53.1857 25.8294 54.1549 28.5121 54.1549H28.5154H30.2999V54.1361H31.8429C32.1185 54.1361 32.3771 54.0227 32.5772 53.8154C32.7649 53.6146 32.8669 53.3335 32.8669 53.0418V49.4535C32.8669 49.1722 32.7649 48.8925 32.5772 48.6886C32.3771 48.4793 32.1185 48.3627 31.8429 48.3627H28.9984C28.4173 48.3404 27.9621 48.2716 27.5604 48.1294C27.2846 48.0366 27.1415 47.9356 26.9949 47.8499C26.8225 47.735 26.7483 47.6798 26.5743 47.5238C26.0245 46.9426 25.7226 46.0401 25.7159 44.6905V26.0183H31.8429C32.1185 26.0183 32.3771 25.8967 32.5772 25.6941C32.7649 25.4918 32.8669 25.2105 32.8669 24.9208V21.3377C32.8669 21.0546 32.7649 20.7751 32.5772 20.5606C32.3771 20.3512 32.1185 20.2467 31.8429 20.2467Z" fill="#D5006C"/>
<path d="M58.2815 24.473L57.9403 24.0974C57.9281 24.0561 57.9022 24.0132 57.8539 23.9704L57.6471 23.7527H57.6541L57.3746 23.4662L57.1386 23.2105L57.1247 23.2208C55.0405 21.0375 52.4442 20.1129 49.6755 20.1129H49.4702C47.4998 20.1129 45.1844 20.991 43.8019 22.6667L42.8332 23.7938V23.3169V21.2656C42.8332 20.991 42.7262 20.7251 42.5209 20.5401C42.3175 20.3496 42.0331 20.2415 41.7538 20.2415H38.1714C37.8938 20.2415 37.6076 20.3496 37.4043 20.5401C37.1974 20.7251 37.0765 20.991 37.0765 21.2656V23.3169V53.1807C37.0765 53.4499 37.1974 53.7056 37.4043 53.901C37.6076 54.0984 37.8938 54.1979 38.1714 54.1979H38.7818C38.8179 54.1979 38.8318 54.2048 38.8454 54.2048H41.1022C41.1209 54.2048 41.1418 54.1979 41.1657 54.1979H41.7538C42.0331 54.1979 42.3175 54.0984 42.5209 53.901C42.7314 53.7056 42.8332 53.4499 42.8332 53.1807V52.6233L42.8399 52.6166V33.6752C42.8399 33.6443 42.8332 33.6203 42.8332 33.591V32.0679C42.9485 30.3013 43.5191 28.725 44.4345 27.5671C45.4172 26.3391 46.8656 25.5433 48.8152 25.5314C49.8461 25.5314 50.5218 25.6599 51.1151 25.8966C51.6699 26.1539 52.251 26.5655 53.0096 27.3512L53.1854 27.5312L53.9527 28.3818C54.1491 28.5861 54.4129 28.7079 54.6906 28.7079C54.9646 28.7096 55.268 28.6049 55.4629 28.4093L58.1539 25.986C58.3661 25.7988 58.5057 25.5106 58.516 25.2345C58.5556 24.9515 58.4557 24.6769 58.2815 24.473Z" fill="#D5006C"/>
<path d="M148.31 36.749C148.293 36.7351 148.278 36.7198 148.278 36.7198L148.269 36.718C146.174 35.2704 143.539 34.7626 140.684 34.5224L135.353 34.0697C133.133 33.8912 131.754 33.4283 130.967 32.8091C130.285 32.291 129.866 31.4523 129.85 30.1867V30.159V30.0904C129.866 28.5861 130.45 27.4849 131.498 26.7473C132.617 25.9395 134.408 25.4353 136.929 25.4284H136.96C140.189 25.4353 142.851 26.1864 145.085 27.605H145.075L146.421 28.5552C146.649 28.7079 146.914 28.7746 147.186 28.7079C147.455 28.6443 147.697 28.4799 147.859 28.2431L149.852 25.3598C150.01 25.1283 150.083 24.8435 150.04 24.5605C150.019 24.4114 149.962 24.2656 149.886 24.1505C149.812 24.0066 149.697 23.8897 149.565 23.7783L149.336 23.6292C146.152 21.3634 141.725 20.106 136.929 20.0993C133.112 20.0993 129.85 21.0047 127.481 22.7613C125.127 24.4867 123.744 27.0974 123.744 30.0698V30.106V30.1196V30.219C123.744 32.8279 124.721 35.1384 126.669 36.7198C128.642 38.3251 131.412 39.1809 134.919 39.4607L140.398 39.8963C142.401 40.0902 143.663 40.5359 144.397 41.145C145.055 41.6648 145.449 42.495 145.452 43.8156V43.8929C145.442 45.5549 144.773 46.711 143.514 47.4946C142.175 48.3404 139.989 48.8686 136.929 48.8686H136.92H136.867H136.839C132.829 48.855 129.974 47.9579 127.759 46.1312L126.592 45.1466C126.385 44.9785 126.106 44.9047 125.832 44.9391C125.564 44.9666 125.299 45.1174 125.106 45.3336L122.808 48.0949C122.625 48.3181 122.525 48.6062 122.549 48.8925C122.558 49.167 122.694 49.4312 122.896 49.6026L123.982 50.5188V50.524C124.006 50.5376 124.023 50.5564 124.039 50.5753L124.18 50.6953L124.199 50.6679C127.574 53.1069 131.769 54.2683 136.92 54.2683H137.01C141.252 54.2683 144.84 53.3489 147.455 51.5548C150.036 49.7794 151.581 47.0504 151.581 43.8929V43.7349C151.581 40.5567 150.352 38.1639 148.31 36.749Z" fill="#D5006C"/>
<path d="M279.894 52.7793L275.422 46.4983L266.457 33.4712L273.419 26.1247L277.472 21.8607L277.722 21.5846C278.184 21.1163 277.957 20.629 277.756 20.449C277.546 20.2467 277.273 20.1389 276.977 20.1389H272.34C272.047 20.1389 271.692 20.3512 271.49 20.5297L255.857 37.1194V23.262V11.0291C255.857 10.7545 255.742 10.4905 255.531 10.3001C255.334 10.1063 255.048 10 254.769 10H251.193C250.904 10 250.626 10.1063 250.421 10.3001C250.214 10.4905 250.097 10.7545 250.097 11.0291V23.262V53.1755C250.097 53.4499 250.214 53.7056 250.421 53.9011C250.621 54.0897 250.904 54.1979 251.193 54.1979H254.769C255.048 54.1979 255.334 54.0897 255.531 53.9011C255.751 53.7056 255.857 53.4499 255.857 53.1755V44.6697L262.62 37.3628L267.19 44.1517H267.173L273.581 53.673C273.715 53.8857 273.96 54.2271 274.494 54.2271H279.153C279.444 54.2271 279.722 54.1088 279.932 53.9183C280.134 53.7364 280.263 53.2424 279.894 52.7793Z" fill="#D5006C"/>
<g clip-path="url(#clip1_379_182)">
<path d="M123.996 68.906C124.553 67.2039 125.996 66.2606 127.892 66.2606C129.396 66.2606 130.551 66.8963 131.272 67.9217C131.334 68.0242 131.334 68.1062 131.21 68.2087L130.303 68.947C130.2 69.029 130.097 69.029 130.015 68.9265C129.438 68.2087 128.881 67.8601 127.892 67.8601C126.82 67.8601 126.016 68.3728 125.686 69.3981C125.522 69.9109 125.46 70.526 125.46 71.3872C125.46 72.2691 125.522 72.8843 125.686 73.3969C126.016 74.4222 126.82 74.9348 127.892 74.9348C128.881 74.9348 129.438 74.5863 130.015 73.8685C130.097 73.766 130.2 73.766 130.303 73.8481L131.21 74.5863C131.334 74.6888 131.334 74.7707 131.272 74.8734C130.551 75.8987 129.396 76.5344 127.892 76.5344C125.996 76.5344 124.553 75.591 123.996 73.889C123.811 73.2944 123.687 72.4946 123.687 71.3872C123.687 70.3005 123.811 69.5007 123.996 68.906Z" fill="#707382"/>
<path d="M135.043 76.3088C134.919 76.3088 134.837 76.2267 134.837 76.1037V66.6913C134.837 66.5683 134.919 66.4863 135.043 66.4863H136.362C136.486 66.4863 136.568 66.5683 136.568 66.6913V67.6961H136.589C137.022 66.8554 137.887 66.2606 139.207 66.2606C139.99 66.2606 140.732 66.5477 141.226 66.999C141.329 67.1014 141.35 67.1834 141.268 67.2861L140.505 68.2908C140.422 68.3933 140.32 68.4139 140.216 68.3319C139.763 68.0448 139.268 67.8601 138.691 67.8601C137.187 67.8601 136.568 69.029 136.568 70.731V76.1037C136.568 76.2267 136.486 76.3088 136.362 76.3088H135.043Z" fill="#707382"/>
<path d="M143.472 73.8685C143.266 73.2328 143.143 72.5152 143.143 71.3872C143.143 70.2594 143.245 69.5007 143.452 68.906C144.008 67.2039 145.451 66.2606 147.327 66.2606C149.223 66.2606 150.645 67.2245 151.201 68.906C151.408 69.5416 151.511 70.2184 151.511 71.7154C151.511 71.8384 151.428 71.9204 151.284 71.9204H145.039C144.956 71.9204 144.915 71.9615 144.915 72.0434C144.915 72.5766 144.977 72.9048 145.08 73.2328C145.472 74.3608 146.358 74.9348 147.574 74.9348C148.749 74.9348 149.573 74.4633 150.109 73.8481C150.212 73.7455 150.315 73.7249 150.418 73.8071L151.263 74.5658C151.366 74.6477 151.366 74.7504 151.284 74.8529C150.501 75.8371 149.161 76.5344 147.43 76.5344C145.43 76.5344 144.008 75.5705 143.472 73.8685ZM149.614 70.5466C149.697 70.5466 149.738 70.5055 149.738 70.4235C149.738 69.9723 149.697 69.6238 149.594 69.3161C149.264 68.3319 148.44 67.7782 147.327 67.7782C146.213 67.7782 145.389 68.3319 145.059 69.3161C144.956 69.6238 144.915 69.9723 144.915 70.4235C144.915 70.5055 144.956 70.5466 145.039 70.5466H149.614Z" fill="#707382"/>
<path d="M154.828 68.906C155.385 67.2039 156.827 66.2606 158.724 66.2606C160.228 66.2606 161.383 66.8963 162.104 67.9217C162.166 68.0242 162.166 68.1062 162.042 68.2087L161.135 68.947C161.032 69.029 160.929 69.029 160.847 68.9265C160.27 68.2087 159.713 67.8601 158.724 67.8601C157.652 67.8601 156.848 68.3728 156.518 69.3981C156.354 69.9109 156.292 70.526 156.292 71.3872C156.292 72.2691 156.354 72.8843 156.518 73.3969C156.848 74.4222 157.652 74.9348 158.724 74.9348C159.713 74.9348 160.27 74.5863 160.847 73.8685C160.929 73.766 161.032 73.766 161.135 73.8481L162.042 74.5863C162.166 74.6888 162.166 74.7707 162.104 74.8734C161.383 75.8987 160.228 76.5344 158.724 76.5344C156.827 76.5344 155.385 75.591 154.828 73.889C154.643 73.2944 154.519 72.4946 154.519 71.3872C154.519 70.3005 154.643 69.5007 154.828 68.906Z" fill="#707382"/>
<path d="M165.834 64.2715C165.71 64.2715 165.628 64.1895 165.628 64.0665V62.5694C165.628 62.4464 165.71 62.3644 165.834 62.3644H167.235C167.359 62.3644 167.442 62.4464 167.442 62.5694V64.0665C167.442 64.1895 167.359 64.2715 167.235 64.2715H165.834ZM165.875 76.3088C165.751 76.3088 165.669 76.2267 165.669 76.1037V66.6913C165.669 66.5683 165.751 66.4863 165.875 66.4863H167.194C167.318 66.4863 167.4 66.5683 167.4 66.6913V76.1037C167.4 76.2267 167.318 76.3088 167.194 76.3088H165.875Z" fill="#707382"/>
<path d="M171.336 73.8685C171.13 73.2328 171.006 72.5152 171.006 71.3872C171.006 70.2594 171.109 69.5007 171.316 68.906C171.872 67.2039 173.315 66.2606 175.19 66.2606C177.087 66.2606 178.509 67.2245 179.065 68.906C179.271 69.5416 179.374 70.2184 179.374 71.7154C179.374 71.8384 179.292 71.9204 179.148 71.9204H172.903C172.82 71.9204 172.779 71.9615 172.779 72.0434C172.779 72.5766 172.841 72.9048 172.944 73.2328C173.335 74.3608 174.222 74.9348 175.438 74.9348C176.613 74.9348 177.437 74.4633 177.973 73.8481C178.076 73.7455 178.179 73.7249 178.282 73.8071L179.127 74.5658C179.23 74.6477 179.23 74.7504 179.148 74.8529C178.364 75.8371 177.025 76.5344 175.294 76.5344C173.294 76.5344 171.872 75.5705 171.336 73.8685ZM177.478 70.5466C177.561 70.5466 177.602 70.5055 177.602 70.4235C177.602 69.9723 177.561 69.6238 177.457 69.3161C177.128 68.3319 176.303 67.7782 175.19 67.7782C174.077 67.7782 173.253 68.3319 172.923 69.3161C172.82 69.6238 172.779 69.9723 172.779 70.4235C172.779 70.5055 172.82 70.5466 172.903 70.5466H177.478Z" fill="#707382"/>
<path d="M189.391 76.3088C189.267 76.3088 189.185 76.2267 189.185 76.1037V70.3619C189.185 68.7829 188.463 67.8601 186.979 67.8601C185.64 67.8601 184.712 68.8035 184.712 70.2594V76.1037C184.712 76.2267 184.629 76.3088 184.506 76.3088H183.187C183.063 76.3088 182.981 76.2267 182.981 76.1037V66.6913C182.981 66.5683 183.063 66.4863 183.187 66.4863H184.506C184.629 66.4863 184.712 66.5683 184.712 66.6913V67.5936H184.733C185.207 66.8349 186.155 66.2606 187.494 66.2606C189.638 66.2606 190.916 67.7166 190.916 69.9518V76.1037C190.916 76.2267 190.834 76.3088 190.71 76.3088H189.391Z" fill="#707382"/>
<path d="M201.2 76.3088C201.076 76.3088 200.994 76.2267 200.994 76.1037V75.1605H200.973C200.499 75.9397 199.654 76.5343 198.17 76.5343C196.459 76.5343 195.264 75.7346 194.77 74.1761C194.502 73.3969 194.419 72.6177 194.419 71.3872C194.419 70.1773 194.502 69.3981 194.77 68.6188C195.264 67.0604 196.459 66.2606 198.17 66.2606C199.654 66.2606 200.499 66.8348 200.973 67.6141H200.994V62.5694C200.994 62.4464 201.076 62.3644 201.2 62.3644H202.519C202.643 62.3644 202.725 62.4464 202.725 62.5694V76.1037C202.725 76.2267 202.643 76.3088 202.519 76.3088H201.2ZM200.767 73.438C200.932 72.9662 200.994 72.3716 200.994 71.3872C200.994 70.403 200.932 69.8287 200.767 69.3366C200.437 68.3522 199.675 67.8601 198.582 67.8601C197.49 67.8601 196.748 68.3728 196.418 69.3366C196.253 69.8698 196.192 70.5055 196.192 71.3872C196.192 72.2895 196.253 72.9253 196.418 73.438C196.748 74.4016 197.49 74.9348 198.582 74.9348C199.675 74.9348 200.437 74.4222 200.767 73.438Z" fill="#707382"/>
<path d="M206.661 73.889C206.434 73.2123 206.332 72.5357 206.332 71.3872C206.332 70.2594 206.434 69.5827 206.661 68.906C207.197 67.2245 208.64 66.2606 210.557 66.2606C212.474 66.2606 213.916 67.2245 214.452 68.906C214.679 69.5827 214.782 70.2594 214.782 71.3872C214.782 72.5357 214.679 73.2123 214.452 73.889C213.916 75.5501 212.474 76.5344 210.557 76.5344C208.64 76.5344 207.197 75.5501 206.661 73.889ZM212.783 73.3969C212.948 72.8637 213.01 72.3305 213.01 71.3872C213.01 70.4439 212.948 69.9313 212.783 69.3981C212.453 68.4139 211.649 67.8601 210.557 67.8601C209.464 67.8601 208.661 68.4139 208.331 69.3981C208.166 69.9313 208.104 70.4439 208.104 71.3872C208.104 72.3305 208.166 72.8637 208.331 73.3969C208.661 74.3811 209.464 74.9348 210.557 74.9348C211.649 74.9348 212.453 74.3811 212.783 73.3969Z" fill="#707382"/>
<path d="M222.531 80C222.407 80 222.324 79.9179 222.324 79.7948V78.6055C222.324 78.4824 222.407 78.4005 222.531 78.4005H222.86C223.829 78.4005 224.159 78.1339 224.159 77.0881V66.6913C224.159 66.5683 224.241 66.4863 224.365 66.4863H225.684C225.807 66.4863 225.89 66.5683 225.89 66.6913V77.047C225.89 79.1592 224.942 80 222.943 80H222.531ZM224.324 64.2715C224.2 64.2715 224.118 64.1895 224.118 64.0665V62.5694C224.118 62.4464 224.2 62.3644 224.324 62.3644H225.725C225.849 62.3644 225.931 62.4464 225.931 62.5694V64.0665C225.931 64.1895 225.849 64.2715 225.725 64.2715H224.324Z" fill="#707382"/>
<path d="M236.298 76.3088C236.175 76.3088 236.092 76.2267 236.092 76.1036V75.1809H236.071C235.556 76.0012 234.649 76.5343 233.371 76.5343C231.207 76.5343 229.95 75.0578 229.95 72.8226V66.6913C229.95 66.5682 230.032 66.4863 230.156 66.4863H231.475C231.599 66.4863 231.681 66.5682 231.681 66.6913V72.4125C231.681 74.012 232.403 74.9348 233.866 74.9348C235.206 74.9348 236.092 73.9915 236.092 72.5151V66.6913C236.092 66.5682 236.175 66.4863 236.298 66.4863H237.617C237.741 66.4863 237.823 66.5682 237.823 66.6913V76.1036C237.823 76.2267 237.741 76.3088 237.617 76.3088H236.298Z" fill="#707382"/>
<path d="M248.437 76.3088C248.313 76.3088 248.231 76.2267 248.231 76.1037V70.3619C248.231 68.7829 247.51 67.8601 246.025 67.8601C244.686 67.8601 243.758 68.8035 243.758 70.2594V76.1037C243.758 76.2267 243.676 76.3088 243.552 76.3088H242.233C242.109 76.3088 242.027 76.2267 242.027 76.1037V66.6913C242.027 66.5683 242.109 66.4863 242.233 66.4863H243.552C243.676 66.4863 243.758 66.5683 243.758 66.6913V67.5936H243.779C244.253 66.8349 245.201 66.2606 246.541 66.2606C248.684 66.2606 249.962 67.7166 249.962 69.9518V76.1037C249.962 76.2267 249.88 76.3088 249.756 76.3088H248.437Z" fill="#707382"/>
<path d="M256.928 76.4113C255.011 76.4113 254.269 75.5501 254.269 73.6224V68.0037C254.269 67.9217 254.228 67.8806 254.145 67.8806H253.321C253.197 67.8806 253.115 67.7987 253.115 67.6757V66.6913C253.115 66.5682 253.197 66.4863 253.321 66.4863H254.145C254.228 66.4863 254.269 66.4452 254.269 66.3632V63.5949C254.269 63.4718 254.351 63.3897 254.475 63.3897H255.794C255.918 63.3897 256 63.4718 256 63.5949V66.3632C256 66.4452 256.042 66.4863 256.124 66.4863H257.691C257.814 66.4863 257.897 66.5682 257.897 66.6913V67.6757C257.897 67.7987 257.814 67.8806 257.691 67.8806H256.124C256.042 67.8806 256 67.9217 256 68.0037V73.561C256 74.5452 256.372 74.8118 257.258 74.8118H257.691C257.814 74.8118 257.897 74.8939 257.897 75.0169V76.2063C257.897 76.3293 257.814 76.4113 257.691 76.4113H256.928Z" fill="#707382"/>
<path d="M261.132 73.889C260.905 73.2123 260.802 72.5357 260.802 71.3872C260.802 70.2594 260.905 69.5827 261.132 68.906C261.668 67.2245 263.111 66.2606 265.028 66.2606C266.945 66.2606 268.387 67.2245 268.923 68.906C269.15 69.5827 269.253 70.2594 269.253 71.3872C269.253 72.5357 269.15 73.2123 268.923 73.889C268.387 75.5501 266.945 76.5344 265.028 76.5344C263.111 76.5344 261.668 75.5501 261.132 73.889ZM267.254 73.3969C267.419 72.8637 267.481 72.3305 267.481 71.3872C267.481 70.4439 267.419 69.9313 267.254 69.3981C266.924 68.4139 266.12 67.8601 265.028 67.8601C263.935 67.8601 263.131 68.4139 262.802 69.3981C262.637 69.9313 262.575 70.4439 262.575 71.3872C262.575 72.3305 262.637 72.8637 262.802 73.3969C263.131 74.3811 263.935 74.9348 265.028 74.9348C266.12 74.9348 266.924 74.3811 267.254 73.3969Z" fill="#707382"/>
<path d="M272.179 75.0579C272.096 74.9759 272.096 74.8529 272.179 74.7707L273.024 73.8685C273.106 73.7865 273.23 73.7865 273.312 73.8685C274.054 74.5043 275.167 74.9964 276.363 74.9964C277.806 74.9964 278.527 74.3811 278.527 73.4994C278.527 72.7202 278.156 72.2895 276.61 72.1256L275.559 72.0229C273.622 71.8179 272.612 70.854 272.612 69.2547C272.612 67.3886 273.951 66.2606 276.28 66.2606C277.723 66.2606 278.96 66.7324 279.784 67.3475C279.887 67.4091 279.887 67.5321 279.825 67.6346L279.125 68.5164C279.042 68.6188 278.939 68.6188 278.836 68.5574C278.197 68.1473 277.187 67.7577 276.177 67.7577C274.941 67.7577 274.302 68.3114 274.302 69.1111C274.302 69.8904 274.776 70.3005 276.239 70.4439L277.27 70.5466C279.269 70.731 280.238 71.7359 280.238 73.3149C280.238 75.2425 278.836 76.5344 276.26 76.5344C274.343 76.5344 272.983 75.7551 272.179 75.0579Z" fill="#707382"/>
</g>
</g>
<defs>
<clipPath id="clip0_379_182">
<rect width="280" height="70" fill="white" transform="translate(10 10)"/>
</clipPath>
<clipPath id="clip1_379_182">
<rect width="156.551" height="17.6356" fill="white" transform="translate(123.687 62.3644)"/>
</clipPath>
</defs>
</svg>
